<?xml version="1.0" encoding="UTF-8"?>
<svg xmlns="http://www.w3.org/2000/svg" width="55pt" height="25pt" viewBox="0 0 235 112" version="1.1">
    <g id="surface1">
        <path style=" stroke:none;fill-rule:evenodd;fill:rgb(100%,100%,100%);fill-opacity:1;"
              d="M 207.882812 57.078125 C 207.882812 44.222656 201.65625 34.078125 189.757812 34.078125 C 177.804688 34.078125 170.574219 44.222656 170.574219 56.980469 C 170.574219 72.097656 179.113281 79.730469 191.363281 79.730469 C 197.339844 79.730469 201.859375 78.375 205.273438 76.464844 L 205.273438 66.421875 C 201.859375 68.128906 197.941406 69.183594 192.972656 69.183594 C 188.101562 69.183594 183.78125 67.476562 183.230469 61.550781 L 207.785156 61.550781 C 207.785156 60.898438 207.882812 58.285156 207.882812 57.078125 Z M 183.078125 52.308594 C 183.078125 46.632812 186.542969 44.273438 189.707031 44.273438 C 192.769531 44.273438 196.035156 46.632812 196.035156 52.308594 Z M 183.078125 52.308594 "/>
        <path style=" stroke:none;fill-rule:evenodd;fill:rgb(100%,100%,100%);fill-opacity:1;"
              d="M 151.195312 34.078125 C 146.273438 34.078125 143.109375 36.386719 141.351562 37.996094 L 140.699219 34.878906 L 129.652344 34.878906 L 129.652344 93.441406 L 142.207031 90.78125 L 142.253906 76.566406 C 144.0625 77.871094 146.722656 79.730469 151.144531 79.730469 C 160.132812 79.730469 168.316406 72.5 168.316406 56.578125 C 168.265625 42.011719 159.980469 34.078125 151.195312 34.078125 Z M 148.179688 68.679688 C 145.21875 68.679688 143.460938 67.625 142.253906 66.320312 L 142.207031 47.6875 C 143.511719 46.230469 145.320312 45.226562 148.179688 45.226562 C 152.75 45.226562 155.914062 50.351562 155.914062 56.929688 C 155.914062 63.660156 152.800781 68.679688 148.179688 68.679688 Z M 148.179688 68.679688 "/>
        <path style=" stroke:none;fill-rule:evenodd;fill:rgb(100%,100%,100%);fill-opacity:1;"
              d="M 112.378906 31.113281 L 124.980469 28.402344 L 124.980469 18.207031 L 112.378906 20.867188 Z M 112.378906 31.113281 "/>
        <path style=" stroke:none;fill-rule:evenodd;fill:rgb(100%,100%,100%);fill-opacity:1;"
              d="M 112.378906 34.929688 L 124.980469 34.929688 L 124.980469 78.878906 L 112.378906 78.878906 Z M 112.378906 34.929688 "/>
        <path style=" stroke:none;fill-rule:evenodd;fill:rgb(100%,100%,100%);fill-opacity:1;"
              d="M 98.871094 38.648438 L 98.066406 34.929688 L 87.222656 34.929688 L 87.222656 78.878906 L 99.773438 78.878906 L 99.773438 49.09375 C 102.738281 45.226562 107.757812 45.929688 109.316406 46.484375 L 109.316406 34.929688 C 107.707031 34.328125 101.832031 33.222656 98.871094 38.648438 Z M 98.871094 38.648438 "/>
        <path style=" stroke:none;fill-rule:evenodd;fill:rgb(100%,100%,100%);fill-opacity:1;"
              d="M 73.765625 24.03125 L 61.511719 26.644531 L 61.460938 66.875 C 61.460938 74.308594 67.035156 79.78125 74.46875 79.78125 C 78.585938 79.78125 81.597656 79.027344 83.253906 78.125 L 83.253906 67.929688 C 81.648438 68.582031 73.714844 70.890625 73.714844 63.457031 L 73.714844 45.628906 L 83.253906 45.628906 L 83.253906 34.929688 L 73.714844 34.929688 Z M 73.765625 24.03125 "/>
        <path style=" stroke:none;fill-rule:evenodd;fill:rgb(100%,100%,100%);fill-opacity:1;"
              d="M 39.820312 47.6875 C 39.820312 45.730469 41.425781 44.976562 44.085938 44.976562 C 47.902344 44.976562 52.722656 46.132812 56.539062 48.191406 L 56.539062 36.386719 C 52.371094 34.730469 48.253906 34.078125 44.085938 34.078125 C 33.894531 34.078125 27.117188 39.402344 27.117188 48.289062 C 27.117188 62.152344 46.195312 59.941406 46.195312 65.917969 C 46.195312 68.230469 44.1875 68.984375 41.375 68.984375 C 37.207031 68.984375 31.886719 67.273438 27.667969 64.964844 L 27.667969 76.917969 C 32.335938 78.925781 37.058594 79.78125 41.375 79.78125 C 51.820312 79.78125 59 74.609375 59 65.617188 C 58.949219 50.652344 39.820312 53.3125 39.820312 47.6875 Z M 39.820312 47.6875 "/>
    </g>
</svg>
